<svg id="Capa_1" data-name="Capa 1" xmlns="http://www.w3.org/2000/svg" viewBox="0 0 1248.91 1246.08"><defs><style>.cls-1{fill:#008f9f;}.cls-2{fill:#ece42b;}.cls-3{fill:#faba6d;}.cls-4{fill:#344999;}.cls-5{fill:#e5d9b0;}.cls-6{fill:#958d72;}.cls-7{fill:#6c6653;}.cls-8{fill:#e4d8af;}.cls-9{fill:#344998;}</style></defs><path d="M556.82,1245a5.11,5.11,0,0,0-2.75-.68c-9.42-.69-18.72-2.26-28.06-3.55-15.05-2.08-29.93-5-44.74-8.34-10.59-2.36-21.07-5.2-31.53-8.13a610.67,610.67,0,0,1-97.16-36.47A624.83,624.83,0,0,1,17.65,788.72c-4.33-15.7-7.91-31.6-11-47.61S1.34,709.29-.61,693.28c-.68-5.55-.86-11.16-1.49-16.72-1.1-9.7-1.32-19.46-1.83-29.2a543.63,543.63,0,0,1,.7-61.88c.43-7,.78-14.05,1.5-21,.94-9.22,2.14-18.42,3.36-27.6.87-6.49,2-13,2.94-19.43,1.19-7.9,2.9-15.7,4.48-23.52,3.59-17.7,8.17-35.15,13.4-52.42,3.19-10.54,6.73-21,10.49-31.34a616,616,0,0,1,50.7-106.69A628.68,628.68,0,0,1,253,118.05,619.89,619.89,0,0,1,366.47,52.49q28.26-12.56,57.59-22.31,27.26-9.09,55.31-15.47c12-2.74,24.05-5.09,36.18-7.13,10.24-1.72,20.52-3.14,30.81-4.5,5.86-.77,11.76-1.16,17.65-1.75.79-.08,1.57-.28,2.35-.42.79-.65,1.73-.34,2.6-.41.66,0,1.33,0,2,0,1-.14,2.18.36,3.1-.5h91.2c.64.7,1.49.44,2.28.5.63,0,1.25,0,1.88,0s1.3,0,2,0c.86.08,1.79-.26,2.52.46,5.4.61,10.79,1.27,16.19,1.83,8.9.93,17.75,2.16,26.6,3.54,7.89,1.23,15.74,2.63,23.59,4.13,11.13,2.13,22.16,4.68,33.17,7.4Q800.64,24.6,827.07,34A619.65,619.65,0,0,1,910.4,70.31a628.31,628.31,0,0,1,245.89,232.88A617.12,617.12,0,0,1,1196,381.78q10.95,26.07,19.46,53,8.94,28.33,15.17,57.39,4.27,19.92,7.22,40.06c1.89,12.81,3.19,25.69,4.36,38.58,2.32,25.54,2.47,51.12,1.77,76.71-.25,8.94-.7,17.89-1.7,26.8-.7,6.36-1.21,12.73-1.8,19.1-.85,9.08-2.18,18.09-3.59,27.08q-4.79,30.54-12.57,60.46a622.88,622.88,0,0,1-128.94,247.3,624.43,624.43,0,0,1-270.55,185.2c-14.94,5.2-30.06,9.77-45.34,13.85q-19,5.06-38.26,8.83c-11.92,2.31-23.9,4.35-35.95,5.9-6.5.83-13,1.89-19.52,2.29a32.8,32.8,0,0,0-4.23.8c-1.17.76-2.49.28-3.74.41h-7.45c-1.39.2-2.88-.46-4.17.5H573.09c-1.57-1-3.31-.27-5-.5h-7.58C559.31,1245.38,557.93,1246.08,556.82,1245Z" transform="translate(4.52 0)"/><path class="cls-1" d="M620.19,1244.49c-10.08-.15-20.16-.15-30.23-.5-7-.24-14-.91-21-1.5-7.8-.67-15.6-1.35-23.38-2.26-7.29-.86-14.57-1.93-21.82-3.09q-13.25-2.13-26.42-4.6c-6.12-1.16-12.19-2.56-18.26-4-15.71-3.66-31.29-7.83-46.66-12.75-14.9-4.77-29.64-10-44.17-15.89a618.16,618.16,0,0,1-123.69-67q-24.73-17.39-47.76-37a623.27,623.27,0,0,1-49-46.61,612.41,612.41,0,0,1-40.71-47.83,625.7,625.7,0,0,1-37.21-54.12,616.61,616.61,0,0,1-37.47-71.25A628.35,628.35,0,0,1,26.84,808.4c-5.06-16.16-9.52-32.49-13.12-49-2.91-13.42-5.35-27-7.66-40.48-1.39-8.18-2.23-16.46-3.14-24.71Q1.47,681.09.37,668c-.53-6.37-.94-12.76-1.11-19.15-.43-16.8-.46-33.6,0-50.39.19-7.19.88-14.36,1.39-21.53.4-5.74.79-11.48,1.36-17.2.62-6.2,1.43-12.38,2.18-18.56,1.43-11.73,3.44-23.38,5.63-35,1.9-10,4.23-20,6.55-30,3.84-16.49,8.62-32.74,14-48.8a602.94,602.94,0,0,1,23.8-60.66Q62.42,348.63,71.76,331a615.92,615.92,0,0,1,38.88-63.3q12.51-17.9,26.24-34.86,17.79-22,37.56-42.34c12.95-13.29,26.37-26.08,40.46-38.17q23.68-20.33,49.22-38.25a618.79,618.79,0,0,1,85.51-50.23A628,628,0,0,1,413.3,37.35a619.39,619.39,0,0,1,63.39-18.66c11.8-2.81,23.67-5.31,35.66-7.21,9.46-1.5,18.9-3.15,28.38-4.45,7.44-1,14.92-1.65,22.4-2.34C575.39,3.56,587.68,3,600,2.52c9.91-.41,19.82-.61,29.73-.44,9.27.15,18.56.32,27.79,1.06,8.75.71,17.55,1,26.26,2.28,4.58.67,9.22.84,13.82,1.42,5.23.65,10.43,1.51,15.64,2.25,17.87,2.54,35.55,6.12,53.1,10.31,13.67,3.27,27.19,7.11,40.6,11.32q27.47,8.61,54,19.79,25.4,10.73,49.79,23.65a621.65,621.65,0,0,1,94.23,61.55q17.88,14.13,34.69,29.54,17.19,15.72,33.12,32.68a614.22,614.22,0,0,1,52.93,64.46c10.87,15.24,21.11,30.89,30.56,47.05a621,621,0,0,1,31.53,61.39c6.82,15.34,13.08,30.9,18.61,46.74a622.49,622.49,0,0,1,17.81,60.66c2.63,11,4.9,22.14,7.08,33.26,1.33,6.73,2.25,13.54,3.21,20.34,1.25,8.86,2.43,17.72,3.47,26.6.62,5.23,1,10.49,1.35,15.75.58,8.61,1.06,17.23,1.57,25.84.08,1.44.13,2.88.14,4.32,0,12.63.1,25.27,0,37.91-.07,6.87-.3,13.76-.87,20.6-1,11.78-1.84,23.57-3.34,35.3-1.26,9.82-2.55,19.63-4.2,29.39q-3.15,18.66-7.47,37.08-6,25.92-14.21,51.23Q1202,843,1190.69,869.18a618.14,618.14,0,0,1-89.44,147,626.4,626.4,0,0,1-51.38,55.67c-11.54,11.07-23.55,21.62-35.89,31.8a623.08,623.08,0,0,1-60.52,43.93c-12.93,8.28-26.21,16-39.71,23.28A615.94,615.94,0,0,1,841,1204.16a598.93,598.93,0,0,1-60.16,19.45q-18.27,4.89-36.82,8.68c-11.41,2.35-23,4.09-34.47,5.91-12.15,1.93-24.41,3-36.65,4.16C655.36,1244.08,637.78,1244.45,620.19,1244.49Z" transform="translate(4.52 0)"/><path d="M1211.24,635.82c-2.54,149.27-59.13,288.22-171.73,404-113,113.16-262.16,174.73-420,174.51-103.95-.15-201.44-25.73-291.74-77.36q-139.5-79.76-220-219.18Q29,780.88,29.52,622.5q.24-157.18,78.35-293.4,80.28-139.5,220.4-219.38C418.76,58.1,516.44,32.63,620.59,32.65c158.51,0,305.6,62.21,415.22,171C1151.27,318.12,1210.58,467.33,1211.24,635.82Z" transform="translate(4.52 0)"/><path class="cls-2" d="M620.12,35.82c327.62.33,588.8,266.75,587.65,589.83-1.15,321.56-262.24,586.46-589.49,585.48C292.51,1210.15,30.71,944.81,32.6,620,34.47,298.18,295.52,36.16,620.12,35.82Z" transform="translate(4.52 0)"/><path d="M1187.34,623.37c0,314.15-255.06,567.32-567.19,567.38-313,.06-567.58-254.13-567.46-567.65C52.81,311,305.91,55.93,620.16,56,933.7,56.05,1187.39,310.33,1187.34,623.37Z" transform="translate(4.52 0)"/><path class="cls-3" d="M1184.25,623.46C1183.41,938.61,928,1188,619.19,1187.51,310.57,1187.05,55.63,937.31,56,622.74c.33-314.06,255.3-564,564.89-563.52C929.75,59.66,1183.56,309.42,1184.25,623.46Z" transform="translate(4.52 0)"/><path d="M65.37,623.49c0-308,250.44-554.88,554.82-554.85,305.39,0,554.8,248.11,554.78,554.88,0,307-249.7,555.08-554.8,554.83a555.22,555.22,0,0,1-393.33-163.52C123.65,911,65.28,771.4,65.37,623.49Z" transform="translate(4.52 0)"/><path class="cls-4" d="M636.9,1145.07c-13.55,0-26.35.22-39.14-.08-8.62-.19-17.25-.84-25.82-1.77-9.19-1-18.39-2-27.55-3.34-10.43-1.53-20.81-3.3-31.12-5.4q-18.75-3.84-37.16-9.24c-14.12-4.11-28.09-8.65-41.83-13.88q-16.12-6.15-31.8-13.39c-10.31-4.75-20.48-9.78-30.46-15.21A526.14,526.14,0,0,1,320.67,1051c-11.9-8.39-23.5-17.16-34.66-26.5-6.37-5.34-12.5-11-18.72-16.48-6.83-6-13.36-12.41-19.72-18.94-10.73-11-20.94-22.43-30.74-34.27a508.8,508.8,0,0,1-33-44.73c-9.22-14-17.81-28.45-25.61-43.33-6.46-12.33-12.55-24.83-18-37.61a518.21,518.21,0,0,1-22.38-63.2c-3.8-13.53-7-27.21-9.9-40.95-1.32-6.24-2.26-12.56-3.22-18.87-1.28-8.52-2.53-17.05-3.57-25.6-.65-5.38-.65-10.85-1.38-16.22-1.19-8.74-.58-17.56-1.49-26.31-.28-2.69-.09-5.44-.18-8.15-.43-13.13.78-26.21.92-39.32,1.34-5.8.77-11.77,1.58-17.65s1.2-11.75,2-17.6c1-7.1,1.9-14.24,3.16-21.3,1.59-9,3.3-17.87,5.37-26.74,2.48-10.58,5.1-21.1,8.16-31.52a507.71,507.71,0,0,1,20.18-56.38A513,513,0,0,1,165,367.75c7.32-12.95,15.11-25.6,23.5-37.89Q201.33,311,215.74,293.4a513.46,513.46,0,0,1,45.34-48.84q15.68-14.84,32.55-28.33A535.83,535.83,0,0,1,338,184.28a517.88,517.88,0,0,1,128.27-59.7A487.67,487.67,0,0,1,530,109.35c9.76-1.62,19.55-3.13,29.35-4.45,5.21-.7,10.49-.89,15.74-1.32l18.15-1.49c.8-.06,1.6-.12,2.39-.13l22.08-.34a9.36,9.36,0,0,1,5.44,1.26,14.77,14.77,0,0,0,6,1.55c5.58.66,11,2.15,16.44,3.31a433,433,0,0,1,45.69,12.54c10.77,3.55,21.34,7.68,31.73,12.24A336.78,336.78,0,0,1,757.64,150a277.31,277.31,0,0,1,40.07,27.94c5.25,4.45,10.46,8.94,15.3,13.82a224.27,224.27,0,0,1,40.13,54.11,226.57,226.57,0,0,1,21.29,61.33,271.52,271.52,0,0,1,4.11,32.28c.42,5.43.62,10.84.7,16.28a286.91,286.91,0,0,1-1.64,33,252.33,252.33,0,0,1-6.94,38.59A227.92,227.92,0,0,1,851.93,476a233.44,233.44,0,0,1-29.36,43.11c-18.52,21.52-40.18,39.27-64.26,54.23C731.8,589.8,703.4,602,673.63,611.06a306.36,306.36,0,0,1-31.14,7.71,141.88,141.88,0,0,1-17.57,2.14c-7.65.51-15.29,1.11-22.92,1.86a354.05,354.05,0,0,0-43.86,7.5,317.23,317.23,0,0,0-45.26,14,254.1,254.1,0,0,0-65.29,37,209.49,209.49,0,0,0-36.13,36.27,214.76,214.76,0,0,0-24.61,39.93,232.55,232.55,0,0,0-16.1,46.06,271.81,271.81,0,0,0-5.12,27.77c-.87,6.65-1.45,13.32-2,20-1.1,12.77-.92,25.56-.67,38.35.13,6.56,1,13.06,1.52,19.58a246.21,246.21,0,0,0,4.07,26.49c1.22,6.28,2.8,12.47,4.6,18.59a227.79,227.79,0,0,0,28.42,61.61,230.84,230.84,0,0,0,34.95,41.27,277.37,277.37,0,0,0,45.86,34.59c8.34,5.06,16.89,9.76,25.65,14q15.94,7.76,32.55,14a454,454,0,0,0,62,18.28c7.77,1.74,15.6,3.28,23.5,4.48C629.43,1143.11,633,1143.15,636.9,1145.07Z" transform="translate(4.52 0)"/><path class="cls-5" d="M651,102.57c7,.28,14,1,21,1.66,6.21.58,12.41,1.24,18.58,2.09q25.65,3.57,50.84,9.52a511,511,0,0,1,92.78,31.58,522.87,522.87,0,0,1,287.63,332.3q6.62,23,10.94,46.6c1.67,9.12,3.33,18.23,4.49,27.42a487.3,487.3,0,0,1,4.38,61.2c0,12,0,24-.47,36-.34,9.11-1.21,18.19-2.22,27.26-1.11,10-2.37,20-4,29.92-2.17,13.41-4.83,26.72-8.07,39.9a522.69,522.69,0,0,1-354.79,374.84c-15,4.59-30.12,8.5-45.46,11.6a440.46,440.46,0,0,1-44,7.06c-5.56.54-11.1,1.33-16.66,1.83a72.51,72.51,0,0,1-15.29-.57c-7.46-.91-14.9-1.87-22.32-3.06-11.19-1.8-22.29-4.06-33.33-6.66a429.36,429.36,0,0,1-46.37-13.68c-34.85-12.47-67.43-29.15-96.31-52.56-23.88-19.35-43.51-42.29-58.17-69.38a224.29,224.29,0,0,1-20.68-54c-7-28.67-9-57.77-7.08-87.15.55-8.61,1.21-17.25,2.42-25.79a271.35,271.35,0,0,1,6.83-33.31,225.73,225.73,0,0,1,21.94-53.48,208.07,208.07,0,0,1,55.25-62.44c22.75-17.27,48-29.81,74.89-39a335.31,335.31,0,0,1,41.12-11.17,349.52,349.52,0,0,1,41.26-6c6.06-.51,12.13-.8,18.19-1.18a133.05,133.05,0,0,0,19.41-3,358.46,358.46,0,0,0,98.36-36.73c26.08-14.34,49.79-31.88,70.34-53.53A234,234,0,0,0,863.84,458a240.24,240.24,0,0,0,14-48.19,291.57,291.57,0,0,0,3.63-73.57,239.54,239.54,0,0,0-13.78-65.4c-12.48-34.16-32.51-63.25-59.22-87.81-22.08-20.3-47.14-36.09-74.17-48.89A409.6,409.6,0,0,0,664.61,109,189.21,189.21,0,0,0,645,104.4a22.8,22.8,0,0,1-2.76-.8C644.91,100.94,648.05,102.65,651,102.57Z" transform="translate(4.52 0)"/><path class="cls-6" d="M651,102.57c-2,.58-4.08.15-6.13.21-.94,0-1.91,0-2.59.82-1.75.42-3.3-.23-4.83-.95-.34-.18-.45-.35-.33-.53s.22-.25.34-.25C642,101.73,646.53,101.43,651,102.57Z" transform="translate(4.52 0)"/><path class="cls-7" d="M637.45,101.87a5.08,5.08,0,0,0,0,.78,2.45,2.45,0,0,1-2.18-.44A2.33,2.33,0,0,1,637.45,101.87Z" transform="translate(4.52 0)"/><path class="cls-8" d="M710.55,334.54c.31,50.24-41.35,92-92.39,91.85-47.79-.17-91.63-38.24-91.68-92.16a91.5,91.5,0,0,1,92.22-92.06C672.14,242.27,711.24,286.21,710.55,334.54Z" transform="translate(4.52 0)"/><path class="cls-9" d="M710.55,911.63c.64,47.49-37.73,92.14-92.11,92.09a91.51,91.51,0,0,1-92-92.33c.22-54.21,44.87-92.12,92.45-91.88C669,819.76,711,860.93,710.55,911.63Z" transform="translate(4.52 0)"/></svg>